<?xml version="1.0" encoding="UTF-8" standalone="no"?>
<!-- Created with Inkscape (http://www.inkscape.org/) -->

<svg
   version="1.1"
   id="svg2"
   width="260"
   height="136"
   viewBox="0 0 260 136"
   sodipodi:docname="tree-7.eps.2023_03_09_13_33_10.0.svg"
   inkscape:version="1.2.1 (1:1.2.1+202210291244+9c6d41e410)"
   xmlns:inkscape="http://www.inkscape.org/namespaces/inkscape"
   xmlns:sodipodi="http://sodipodi.sourceforge.net/DTD/sodipodi-0.dtd"
   xmlns="http://www.w3.org/2000/svg"
   xmlns:svg="http://www.w3.org/2000/svg">
  <defs
     id="defs6" />
  <sodipodi:namedview
     id="namedview4"
     pagecolor="#ffffff"
     bordercolor="#666666"
     borderopacity="1.0"
     inkscape:showpageshadow="2"
     inkscape:pageopacity="0.0"
     inkscape:pagecheckerboard="0"
     inkscape:deskcolor="#d1d1d1"
     showgrid="false"
     inkscape:zoom="3.4628038"
     inkscape:cx="137.02769"
     inkscape:cy="72.629007"
     inkscape:window-width="1464"
     inkscape:window-height="800"
     inkscape:window-x="72"
     inkscape:window-y="27"
     inkscape:window-maximized="1"
     inkscape:current-layer="layer5">
    <inkscape:page
       x="0"
       y="0"
       id="page8"
       width="260"
       height="136" />
  </sodipodi:namedview>
  <g
     id="g10"
     inkscape:groupmode="layer"
     inkscape:label="Page 1"
     transform="matrix(1.3333333,0,0,-1.3333333,0,136)"
     style="display:inline">
    <path
       d="M 123.875,58.816 H 88.4609"
       style="fill:none;stroke:#000000;stroke-width:0.7515;stroke-linecap:butt;stroke-linejoin:miter;stroke-miterlimit:4;stroke-dasharray:none;stroke-opacity:1"
       id="path14" />
    <path
       d="M 36.934,60.1949 62.5941,45.3789"
       style="fill:none;stroke:#000000;stroke-width:0.751181;stroke-linecap:butt;stroke-linejoin:miter;stroke-miterlimit:4;stroke-dasharray:none;stroke-opacity:1"
       id="path16" />
    <path
       d="M 37.848,30.168 63.5121,44.9879"
       style="fill:none;stroke:#000000;stroke-width:0.751181;stroke-linecap:butt;stroke-linejoin:miter;stroke-miterlimit:4;stroke-dasharray:none;stroke-opacity:1"
       id="path18" />
    <path
       d="M 62.609,74.125 88.273,59.309"
       style="fill:none;stroke:#000000;stroke-width:0.751181;stroke-linecap:butt;stroke-linejoin:miter;stroke-miterlimit:4;stroke-dasharray:none;stroke-opacity:1"
       id="path20" />
    <path
       d="m 62.4879,78.1762 c 2.2851,0 4.141,-1.8563 4.141,-4.1453 0,-2.2848 -1.8559,-4.1399 -4.141,-4.1399 -2.2891,0 -4.1438,1.8551 -4.1438,4.1399 0,2.289 1.8547,4.1453 4.1438,4.1453 z"
       style="fill:#ffffff;fill-opacity:1;fill-rule:nonzero;stroke:none;stroke-width:0.1"
       id="path22" />
    <path
       d="m 62.4879,78.1762 c 2.2851,0 4.141,-1.8563 4.141,-4.1453 0,-2.2848 -1.8559,-4.1399 -4.141,-4.1399 -2.2891,0 -4.1438,1.8551 -4.1438,4.1399 0,2.289 1.8547,4.1453 4.1438,4.1453 z"
       style="fill:none;stroke:#000000;stroke-width:0.751181;stroke-linecap:round;stroke-linejoin:round;stroke-miterlimit:4;stroke-dasharray:none;stroke-opacity:1"
       id="path24" />
    <path
       d="m 40.1641,62.391 c 1.1449,-1.9769 0.4648,-4.5121 -1.5161,-5.6531 -1.98,-1.1438 -4.5152,-0.468 -5.6558,1.5121 -1.1442,1.984 -0.4692,4.516 1.5156,5.6602 1.9762,1.1449 4.5121,0.4648 5.6563,-1.5192 z"
       style="fill:#000000;fill-opacity:1;fill-rule:nonzero;stroke:none;stroke-width:0.1"
       id="path26" />
    <path
       d="m 40.1641,62.391 c 1.1449,-1.9769 0.4648,-4.5121 -1.5161,-5.6531 -1.98,-1.1438 -4.5152,-0.468 -5.6558,1.5121 -1.1442,1.984 -0.4692,4.516 1.5156,5.6602 1.9762,1.1449 4.5121,0.4648 5.6563,-1.5192 z"
       style="fill:none;stroke:#000000;stroke-width:0.751181;stroke-linecap:round;stroke-linejoin:round;stroke-miterlimit:4;stroke-dasharray:none;stroke-opacity:1"
       id="path28" />
    <path
       d="m 41.332,28.402 c -1.1441,-1.9801 -3.68,-2.6559 -5.6558,-1.5149 -1.9852,1.1438 -2.6641,3.6789 -1.5203,5.6598 1.1453,1.9801 3.68,2.6601 5.6601,1.5152 1.9809,-1.1402 2.661,-3.675 1.516,-5.6601 z"
       style="fill:#000000;fill-opacity:1;fill-rule:nonzero;stroke:none;stroke-width:0.1"
       id="path30" />
    <path
       d="m 41.332,28.402 c -1.1441,-1.9801 -3.68,-2.6559 -5.6558,-1.5149 -1.9852,1.1438 -2.6641,3.6789 -1.5203,5.6598 1.1453,1.9801 3.68,2.6601 5.6601,1.5152 1.9809,-1.1402 2.661,-3.675 1.516,-5.6601 z"
       style="fill:none;stroke:#000000;stroke-width:0.751181;stroke-linecap:round;stroke-linejoin:round;stroke-miterlimit:4;stroke-dasharray:none;stroke-opacity:1"
       id="path32" />
    <path
       d="M 88.3238,59.0941 62.6641,44.277"
       style="fill:none;stroke:#000000;stroke-width:0.751181;stroke-linecap:butt;stroke-linejoin:miter;stroke-miterlimit:4;stroke-dasharray:none;stroke-opacity:1"
       id="path34" />
    <path
       d="m 84.8441,60.859 c 1.1438,1.9808 3.6789,2.6609 5.6559,1.516 1.984,-1.1449 2.6602,-3.6801 1.5199,-5.6559 -1.1449,-1.9851 -3.6801,-2.664 -5.6609,-1.5203 -1.9801,1.1453 -2.6602,3.6801 -1.5149,5.6602 z"
       style="fill:#000000;fill-opacity:1;fill-rule:nonzero;stroke:none;stroke-width:0.1"
       id="path36" />
    <path
       d="m 84.8441,60.859 c 1.1438,1.9808 3.6789,2.6609 5.6559,1.516 1.984,-1.1449 2.6602,-3.6801 1.5199,-5.6559 -1.1449,-1.9851 -3.6801,-2.664 -5.6609,-1.5203 -1.9801,1.1453 -2.6602,3.6801 -1.5149,5.6602 z"
       style="fill:none;stroke:#000000;stroke-width:0.751181;stroke-linecap:round;stroke-linejoin:round;stroke-miterlimit:4;stroke-dasharray:none;stroke-opacity:1"
       id="path38" />
    <path
       d="M 148.793,73.8012 123.133,58.984"
       style="fill:none;stroke:#000000;stroke-width:0.751181;stroke-linecap:butt;stroke-linejoin:miter;stroke-miterlimit:4;stroke-dasharray:none;stroke-opacity:1"
       id="path40" />
    <path
       d="M 147.879,43.773 122.215,58.5898"
       style="fill:none;stroke:#000000;stroke-width:0.751181;stroke-linecap:butt;stroke-linejoin:miter;stroke-miterlimit:4;stroke-dasharray:none;stroke-opacity:1"
       id="path42" />
    <path
       d="m 145.562,75.9961 c -1.144,-1.9801 -0.464,-4.5121 1.516,-5.6563 1.981,-1.1449 4.516,-0.4648 5.656,1.5153 1.145,1.9808 0.469,4.516 -1.515,5.6609 -1.977,1.1399 -4.512,0.4641 -5.657,-1.5199 z"
       style="fill:#000000;fill-opacity:1;fill-rule:nonzero;stroke:none;stroke-width:0.1"
       id="path44" />
    <path
       d="m 145.562,75.9961 c -1.144,-1.9801 -0.464,-4.5121 1.516,-5.6563 1.981,-1.1449 4.516,-0.4648 5.656,1.5153 1.145,1.9808 0.469,4.516 -1.515,5.6609 -1.977,1.1399 -4.512,0.4641 -5.657,-1.5199 z"
       style="fill:none;stroke:#000000;stroke-width:0.751181;stroke-linecap:round;stroke-linejoin:round;stroke-miterlimit:4;stroke-dasharray:none;stroke-opacity:1"
       id="path46" />
    <path
       d="m 144.395,42.0078 c 1.144,-1.9808 3.679,-2.6598 5.656,-1.5156 1.984,1.1449 2.664,3.6797 1.519,5.6558 -1.144,1.9848 -3.679,2.6641 -5.66,1.52 -1.98,-1.145 -2.66,-3.6801 -1.515,-5.6602 z"
       style="fill:#000000;fill-opacity:1;fill-rule:nonzero;stroke:none;stroke-width:0.1"
       id="path48" />
    <path
       d="m 144.395,42.0078 c 1.144,-1.9808 3.679,-2.6598 5.656,-1.5156 1.984,1.1449 2.664,3.6797 1.519,5.6558 -1.144,1.9848 -3.679,2.6641 -5.66,1.52 -1.98,-1.145 -2.66,-3.6801 -1.515,-5.6602 z"
       style="fill:none;stroke:#000000;stroke-width:0.751181;stroke-linecap:round;stroke-linejoin:round;stroke-miterlimit:4;stroke-dasharray:none;stroke-opacity:1"
       id="path50" />
    <g
       id="g52">
      <text
         xml:space="preserve"
         transform="matrix(1,0,0,-1,26.6117,26.2055)"
         style="font-variant:normal;font-weight:normal;font-size:10px;font-family:'DejaVu Sans';-inkscape-font-specification:DejaVuSans;writing-mode:lr-tb;fill:#000000;fill-opacity:1;fill-rule:nonzero;stroke:none"
         id="text70"><tspan
           x="0"
           y="0"
           id="tspan54">1</tspan><tspan
           x="-1.54844"
           y="-30.756599"
           id="tspan56">2</tspan><tspan
           x="38.094559"
           y="-8.0375004"
           id="tspan58">1</tspan><tspan
           x="25.43556"
           y="-49.230099"
           id="tspan60">2</tspan><tspan
           x="59.301159"
           y="-37.9184"
           id="tspan62">3</tspan><tspan
           x="93.595657"
           y="-37.904339"
           id="tspan64">3</tspan><tspan
           x="127.57376"
           y="-44.790279"
           id="tspan66">4</tspan><tspan
           x="126.88899"
           y="-14.311378"
           id="tspan68">5</tspan></text>
    </g>
    <path
       d="m 66.9059,45.0551 c 0,-2.2852 -1.8508,-4.141 -4.1399,-4.141 -2.289,0 -4.1449,1.8558 -4.1449,4.141 0,2.289 1.8559,4.1437 4.1449,4.1437 2.2891,0 4.1399,-1.8547 4.1399,-4.1437 z"
       style="fill:#ffffff;fill-opacity:1;fill-rule:nonzero;stroke:none;stroke-width:0.1"
       id="path72" />
    <path
       d="m 66.9059,45.0551 c 0,-2.2852 -1.8508,-4.141 -4.1399,-4.141 -2.289,0 -4.1449,1.8558 -4.1449,4.141 0,2.289 1.8559,4.1437 4.1449,4.1437 2.2891,0 4.1399,-1.8547 4.1399,-4.1437 z"
       style="fill:none;stroke:#000000;stroke-width:0.751181;stroke-linecap:round;stroke-linejoin:round;stroke-miterlimit:4;stroke-dasharray:none;stroke-opacity:1"
       id="path74" />
    <path
       d="m 118.871,58.6801 c 0,2.2847 1.852,4.1398 4.141,4.1398 2.289,0 4.144,-1.8551 4.144,-4.1398 0,-2.2891 -1.855,-4.1449 -4.144,-4.1449 -2.289,0 -4.141,1.8558 -4.141,4.1449 z"
       style="fill:#ffffff;fill-opacity:1;fill-rule:nonzero;stroke:none;stroke-width:0.1"
       id="path76" />
    <path
       d="m 118.871,58.6801 c 0,2.2847 1.852,4.1398 4.141,4.1398 2.289,0 4.144,-1.8551 4.144,-4.1398 0,-2.2891 -1.855,-4.1449 -4.144,-4.1449 -2.289,0 -4.141,1.8558 -4.141,4.1449 z"
       style="fill:none;stroke:#000000;stroke-width:0.751181;stroke-linecap:round;stroke-linejoin:round;stroke-miterlimit:4;stroke-dasharray:none;stroke-opacity:1"
       id="path78" />
  </g>
  <g
     inkscape:groupmode="layer"
     id="layer1"
     inkscape:label="Page 2"
     style="display:none">
    <path
       d="M 43.4531,7.98398 C 60.1289,14.434 60.3871,19.941 54.4648,31.6602"
       style="fill:none;stroke:#000000;stroke-width:0.75;stroke-linecap:butt;stroke-linejoin:miter;stroke-miterlimit:4;stroke-dasharray:none;stroke-opacity:1"
       id="path80"
       transform="matrix(1.3333333,0,0,-1.3333333,0,136)" />
    <g
       id="g84"
       transform="matrix(1.3333333,0,0,-1.3333333,0,136)">
      <text
         xml:space="preserve"
         transform="matrix(1,0,0,-1,35.448,2.42188)"
         style="font-variant:normal;font-weight:normal;font-size:10px;font-family:'DejaVu Sans';-inkscape-font-specification:DejaVuSans;writing-mode:lr-tb;fill:#000000;fill-opacity:1;fill-rule:nonzero;stroke:none"
         id="text88"><tspan
           x="0"
           y="0"
           id="tspan86">L</tspan></text>
      <text
         xml:space="preserve"
         transform="matrix(1,0,0,-1,41.01909,0.42188)"
         style="font-variant:normal;font-weight:normal;font-size:6.5px;font-family:'DejaVu Sans';-inkscape-font-specification:DejaVuSans;writing-mode:lr-tb;fill:#000000;fill-opacity:1;fill-rule:nonzero;stroke:none"
         id="text92"><tspan
           x="0"
           y="0"
           id="tspan90">1</tspan></text>
    </g>
    <path
       d="m 56.8121,31.6719 -4.4762,4.207 0.7262,-6.1019 c 0.6219,1.489 2.1801,2.2781 3.75,1.8949 z"
       style="display:inline;fill:#000000;fill-opacity:1;fill-rule:evenodd;stroke:none;stroke-width:0.1"
       id="path82"
       transform="matrix(1.3333333,0,0,-1.3333333,0,136)" />
  </g>
  <g
     inkscape:groupmode="layer"
     id="layer2"
     inkscape:label="Page 3"
     style="display:none">
    <path
       d="M 9.53516,49.0391 C 24.816,41.1211 33.9488,42.0898 44.4059,49.582"
       style="fill:none;stroke:#000000;stroke-width:0.75;stroke-linecap:butt;stroke-linejoin:miter;stroke-miterlimit:4;stroke-dasharray:none;stroke-opacity:1"
       id="path94"
       transform="matrix(1.3333333,0,0,-1.3333333,0,136)" />
    <g
       id="g98"
       transform="matrix(1.3333333,0,0,-1.3333333,0,136)">
      <text
         xml:space="preserve"
         transform="matrix(1,0,0,-1,-0.98125,47.7566)"
         style="font-variant:normal;font-weight:normal;font-size:10px;font-family:'DejaVu Sans';-inkscape-font-specification:DejaVuSans;writing-mode:lr-tb;fill:#000000;fill-opacity:1;fill-rule:nonzero;stroke:none"
         id="text102"><tspan
           x="0"
           y="0"
           id="tspan100">L</tspan></text>
      <text
         xml:space="preserve"
         transform="matrix(1,0,0,-1,4.58984,45.7566)"
         style="font-variant:normal;font-weight:normal;font-size:6.5px;font-family:'DejaVu Sans';-inkscape-font-specification:DejaVuSans;writing-mode:lr-tb;fill:#000000;fill-opacity:1;fill-rule:nonzero;stroke:none"
         id="text106"><tspan
           x="0"
           y="0"
           id="tspan104">2</tspan></text>
    </g>
    <path
       d="m 44.773,47.2621 3.4731,5.0699 -5.918,-1.6558 c 1.5668,-0.3832 2.586,-1.8051 2.4449,-3.4141 z"
       style="display:inline;fill:#000000;fill-opacity:1;fill-rule:evenodd;stroke:none;stroke-width:0.1"
       id="path96"
       transform="matrix(1.3333333,0,0,-1.3333333,0,136)" />
  </g>
  <g
     inkscape:groupmode="layer"
     id="layer3"
     inkscape:label="Page 4"
     style="display:none">
    <path
       d="M 100.293,23.5781 C 80.668,46.75 80.668,46.75 80.668,46.75"
       style="fill:none;stroke:#000000;stroke-width:0.75;stroke-linecap:butt;stroke-linejoin:miter;stroke-miterlimit:4;stroke-dasharray:none;stroke-opacity:1"
       id="path108"
       transform="matrix(1.3333333,0,0,-1.3333333,0,136)" />
    <g
       id="g112"
       transform="matrix(1.3333333,0,0,-1.3333333,0,136)">
      <text
         xml:space="preserve"
         transform="matrix(1,0,0,-1,100.861,18.7977)"
         style="font-variant:normal;font-weight:normal;font-size:10px;font-family:'DejaVu Sans';-inkscape-font-specification:DejaVuSans;writing-mode:lr-tb;fill:#000000;fill-opacity:1;fill-rule:nonzero;stroke:none"
         id="text116"><tspan
           x="0 5.5700002"
           y="0"
           sodipodi:role="line"
           id="tspan114">L'</tspan></text>
      <text
         xml:space="preserve"
         transform="matrix(1,0,0,-1,109.18131,16.7977)"
         style="font-variant:normal;font-weight:normal;font-size:6.5px;font-family:'DejaVu Sans';-inkscape-font-specification:DejaVuSans;writing-mode:lr-tb;fill:#000000;fill-opacity:1;fill-rule:nonzero;stroke:none"
         id="text120"><tspan
           x="0"
           y="0"
           id="tspan118">1</tspan></text>
      <text
         xml:space="preserve"
         transform="matrix(1,0,0,-1,113.31686,18.7977)"
         style="font-variant:normal;font-weight:normal;font-size:10px;font-family:'DejaVu Sans';-inkscape-font-specification:DejaVuSans;writing-mode:lr-tb;fill:#000000;fill-opacity:1;fill-rule:nonzero;stroke:none"
         id="text124"><tspan
           x="0 3.6099999"
           y="0"
           sodipodi:role="line"
           id="tspan122">-L</tspan></text>
      <text
         xml:space="preserve"
         transform="matrix(1,0,0,-1,122.49655,16.7977)"
         style="font-variant:normal;font-weight:normal;font-size:6.5px;font-family:'DejaVu Sans';-inkscape-font-specification:DejaVuSans;writing-mode:lr-tb;fill:#000000;fill-opacity:1;fill-rule:nonzero;stroke:none"
         id="text128"><tspan
           x="0"
           y="0"
           id="tspan126">1</tspan></text>
      <text
         xml:space="preserve"
         transform="matrix(1,0,0,-1,126.63171,18.7977)"
         style="font-variant:normal;font-weight:normal;font-size:10px;font-family:'DejaVu Sans';-inkscape-font-specification:DejaVuSans;writing-mode:lr-tb;fill:#000000;fill-opacity:1;fill-rule:nonzero;stroke:none"
         id="text132"><tspan
           x="0 3.6099999"
           y="0"
           sodipodi:role="line"
           id="tspan130">-L</tspan></text>
      <text
         xml:space="preserve"
         transform="matrix(1,0,0,-1,135.8114,16.7977)"
         style="font-variant:normal;font-weight:normal;font-size:6.5px;font-family:'DejaVu Sans';-inkscape-font-specification:DejaVuSans;writing-mode:lr-tb;fill:#000000;fill-opacity:1;fill-rule:nonzero;stroke:none"
         id="text136"><tspan
           x="0"
           y="0"
           id="tspan134">2</tspan></text>
    </g>
    <path
       d="m 82.9488,47.3051 -5.3359,3.05 2.1293,-5.7653 c 0.2539,1.5942 1.5898,2.7223 3.2066,2.7153 z"
       style="display:inline;fill:#000000;fill-opacity:1;fill-rule:evenodd;stroke:none;stroke-width:0.1"
       id="path110"
       transform="matrix(1.3333333,0,0,-1.3333333,0,136)" />
  </g>
  <g
     inkscape:groupmode="layer"
     id="layer4"
     inkscape:label="Page 5"
     style="display:none">
    <path
       d="M 49.6172,91.3121 C 67.0078,87.0738 82.4102,80.4922 78.3828,72.2539"
       style="fill:none;stroke:#000000;stroke-width:0.75;stroke-linecap:butt;stroke-linejoin:miter;stroke-miterlimit:4;stroke-dasharray:none;stroke-opacity:1"
       id="path138"
       transform="matrix(1.3333333,0,0,-1.3333333,0,136)" />
    <g
       id="g142"
       transform="matrix(1.3333333,0,0,-1.3333333,0,136)">
      <text
         xml:space="preserve"
         transform="matrix(1,0,0,-1,34.098,91.7)"
         style="font-variant:normal;font-weight:normal;font-size:10px;font-family:'DejaVu Sans';-inkscape-font-specification:DejaVuSans;writing-mode:lr-tb;fill:#000000;fill-opacity:1;fill-rule:nonzero;stroke:none"
         id="text146"><tspan
           x="0 5.5700002"
           y="0"
           sodipodi:role="line"
           id="tspan144">L'</tspan></text>
      <text
         xml:space="preserve"
         transform="matrix(1,0,0,-1,42.41831,89.7)"
         style="font-variant:normal;font-weight:normal;font-size:6.5px;font-family:'DejaVu Sans';-inkscape-font-specification:DejaVuSans;writing-mode:lr-tb;fill:#000000;fill-opacity:1;fill-rule:nonzero;stroke:none"
         id="text150"><tspan
           x="0"
           y="0"
           id="tspan148">2</tspan></text>
    </g>
    <path
       d="m 76.957,74.1172 -0.648,-6.1094 4.4211,4.2652 c -1.5582,-0.4058 -3.1281,0.3598 -3.7731,1.8442 z"
       style="display:inline;fill:#000000;fill-opacity:1;fill-rule:evenodd;stroke:none;stroke-width:0.1"
       id="path140"
       transform="matrix(1.3333333,0,0,-1.3333333,0,136)" />
  </g>
  <g
     inkscape:groupmode="layer"
     id="layer5"
     inkscape:label="Page 6"
     style="display:none">
    <path
       d="M 105.047,92.1949 C 104.898,66.4961 104.898,66.4961 104.898,66.4961"
       style="fill:none;stroke:#000000;stroke-width:0.75;stroke-linecap:butt;stroke-linejoin:miter;stroke-miterlimit:4;stroke-dasharray:none;stroke-opacity:1"
       id="path152"
       transform="matrix(1.3333333,0,0,-1.3333333,0,136)" />
    <text
       xml:space="preserve"
       transform="matrix(1.3333333,0,0,1.3333333,0,136)"
       style="font-variant:normal;font-weight:normal;font-size:10px;font-family:'DejaVu Sans';-inkscape-font-specification:DejaVuSans;writing-mode:lr-tb;fill:#000000;fill-opacity:1;fill-rule:nonzero;stroke:none"
       id="text160"
       x="69.979301"
       y="-94.710197"><tspan
         x="69.979301"
         y="-94.710197"
         id="tspan158">L</tspan></text>
    <text
       xml:space="preserve"
       transform="matrix(1.3333333,0,0,1.3333333,0,136)"
       style="font-variant:normal;font-weight:normal;font-size:6.5px;font-family:'DejaVu Sans';-inkscape-font-specification:DejaVuSans;writing-mode:lr-tb;fill:#000000;fill-opacity:1;fill-rule:nonzero;stroke:none"
       id="text164"
       x="75.550781"
       y="-92.710197"><tspan
         x="75.550781"
         y="-92.710197"
         id="tspan162">1</tspan></text>
    <text
       xml:space="preserve"
       transform="matrix(1.3333333,0,0,1.3333333,0,136)"
       style="font-variant:normal;font-weight:normal;font-size:10px;font-family:'DejaVu Sans';-inkscape-font-specification:DejaVuSans;writing-mode:lr-tb;fill:#000000;fill-opacity:1;fill-rule:nonzero;stroke:none"
       id="text168"
       x="79.685944"
       y="-94.710197"><tspan
         x="79.685944 88.065941"
         y="-94.710197"
         sodipodi:role="line"
         id="tspan166">+L</tspan></text>
    <text
       xml:space="preserve"
       transform="matrix(1.3333333,0,0,1.3333333,0,136)"
       style="font-variant:normal;font-weight:normal;font-size:6.5px;font-family:'DejaVu Sans';-inkscape-font-specification:DejaVuSans;writing-mode:lr-tb;fill:#000000;fill-opacity:1;fill-rule:nonzero;stroke:none"
       id="text172"
       x="93.636337"
       y="-92.710197"><tspan
         x="93.636337"
         y="-92.710197"
         id="tspan170">2</tspan></text>
    <text
       xml:space="preserve"
       transform="matrix(1.3333333,0,0,1.3333333,0,136)"
       style="font-variant:normal;font-weight:normal;font-size:10px;font-family:'DejaVu Sans';-inkscape-font-specification:DejaVuSans;writing-mode:lr-tb;fill:#000000;fill-opacity:1;fill-rule:nonzero;stroke:none"
       id="text176"
       x="97.771889"
       y="-94.710197"><tspan
         x="97.771889 106.15189"
         y="-94.710197"
         sodipodi:role="line"
         id="tspan174">+L</tspan></text>
    <text
       xml:space="preserve"
       transform="matrix(1.3333333,0,0,1.3333333,0,136)"
       style="font-variant:normal;font-weight:normal;font-size:6.5px;font-family:'DejaVu Sans';-inkscape-font-specification:DejaVuSans;writing-mode:lr-tb;fill:#000000;fill-opacity:1;fill-rule:nonzero;stroke:none"
       id="text180"
       x="111.72189"
       y="-92.710197"><tspan
         x="111.72189"
         y="-92.710197"
         id="tspan178">3</tspan></text>
    <text
       xml:space="preserve"
       transform="matrix(1.3333333,0,0,1.3333333,0,136)"
       style="font-variant:normal;font-weight:normal;font-size:10px;font-family:'DejaVu Sans';-inkscape-font-specification:DejaVuSans;writing-mode:lr-tb;fill:#000000;fill-opacity:1;fill-rule:nonzero;stroke:none"
       id="text184"
       x="115.85744"
       y="-94.710197"><tspan
         x="115.85744 119.46744 125.03744"
         y="-94.710197"
         sodipodi:role="line"
         id="tspan182">-L'</tspan></text>
    <text
       xml:space="preserve"
       transform="matrix(1.3333333,0,0,1.3333333,0,136)"
       style="font-variant:normal;font-weight:normal;font-size:6.5px;font-family:'DejaVu Sans';-inkscape-font-specification:DejaVuSans;writing-mode:lr-tb;fill:#000000;fill-opacity:1;fill-rule:nonzero;stroke:none"
       id="text188"
       x="127.78634"
       y="-92.710197"><tspan
         x="127.78634"
         y="-92.710197"
         id="tspan186">1</tspan></text>
    <text
       xml:space="preserve"
       transform="matrix(1.3333333,0,0,1.3333333,0,136)"
       style="font-variant:normal;font-weight:normal;font-size:10px;font-family:'DejaVu Sans';-inkscape-font-specification:DejaVuSans;writing-mode:lr-tb;fill:#000000;fill-opacity:1;fill-rule:nonzero;stroke:none"
       id="text192"
       x="131.92189"
       y="-94.710197"><tspan
         x="131.92189 135.53189 141.10188"
         y="-94.710197"
         sodipodi:role="line"
         id="tspan190">-L'</tspan></text>
    <text
       xml:space="preserve"
       transform="matrix(1.3333333,0,0,1.3333333,0,136)"
       style="font-variant:normal;font-weight:normal;font-size:6.5px;font-family:'DejaVu Sans';-inkscape-font-specification:DejaVuSans;writing-mode:lr-tb;fill:#000000;fill-opacity:1;fill-rule:nonzero;stroke:none"
       id="text196"
       x="143.85039"
       y="-92.710197"><tspan
         x="143.85039"
         y="-92.710197"
         id="tspan194">2</tspan></text>
    <path
       d="m 102.805,67.559 2.066,-5.7891 2.133,5.761 c -1.231,-1.043 -2.977,-1.0309 -4.199,0.0281 z"
       style="display:inline;fill:#000000;fill-opacity:1;fill-rule:evenodd;stroke:none;stroke-width:0.1"
       id="path154"
       transform="matrix(1.3333333,0,0,-1.3333333,0,136)" />
  </g>
  <g
     inkscape:groupmode="layer"
     id="layer6"
     inkscape:label="Page 7"
     style="display:none">
    <text
       xml:space="preserve"
       transform="matrix(1.3333333,0,0,1.3333333,0,136)"
       style="font-variant:normal;font-weight:normal;font-size:9.99998px;font-family:'DejaVu Sans';-inkscape-font-specification:DejaVuSans;writing-mode:lr-tb;fill:#000000;fill-opacity:1;fill-rule:nonzero;stroke:none"
       id="text200"
       x="147.79062"
       y="-94.238327"><tspan
         x="147.79062 156.17061 161.74059"
         y="-94.238327"
         sodipodi:role="line"
         id="tspan198">=L'</tspan></text>
    <text
       xml:space="preserve"
       transform="matrix(1.3333333,0,0,1.3333333,0,136)"
       style="font-variant:normal;font-weight:normal;font-size:6.49999px;font-family:'DejaVu Sans';-inkscape-font-specification:DejaVuSans;writing-mode:lr-tb;fill:#000000;fill-opacity:1;fill-rule:nonzero;stroke:none"
       id="text204"
       x="164.48982"
       y="-92.238327"><tspan
         x="164.48982"
         y="-92.238327"
         id="tspan202">3</tspan></text>
    <text
       xml:space="preserve"
       transform="matrix(1.3333333,0,0,1.3333333,0,136)"
       style="font-variant:normal;font-weight:normal;font-size:9.99998px;font-family:'DejaVu Sans';-inkscape-font-specification:DejaVuSans;writing-mode:lr-tb;fill:#000000;fill-opacity:1;fill-rule:nonzero;stroke:none"
       id="text208"
       x="168.62537"
       y="-94.238327"><tspan
         x="168.62537 172.23537"
         y="-94.238327"
         sodipodi:role="line"
         id="tspan206">-L</tspan></text>
    <text
       xml:space="preserve"
       transform="matrix(1.3333333,0,0,1.3333333,0,136)"
       style="font-variant:normal;font-weight:normal;font-size:6.49999px;font-family:'DejaVu Sans';-inkscape-font-specification:DejaVuSans;writing-mode:lr-tb;fill:#000000;fill-opacity:1;fill-rule:nonzero;stroke:none"
       id="text212"
       x="177.80505"
       y="-92.238327"><tspan
         x="177.80505"
         y="-92.238327"
         id="tspan210">4</tspan></text>
    <text
       xml:space="preserve"
       transform="matrix(1.3333333,0,0,1.3333333,0,136)"
       style="font-variant:normal;font-weight:normal;font-size:9.99998px;font-family:'DejaVu Sans';-inkscape-font-specification:DejaVuSans;writing-mode:lr-tb;fill:#000000;fill-opacity:1;fill-rule:nonzero;stroke:none"
       id="text216"
       x="181.94061"
       y="-94.238327"><tspan
         x="181.94061 185.5506"
         y="-94.238327"
         sodipodi:role="line"
         id="tspan214">-L</tspan></text>
    <text
       xml:space="preserve"
       transform="matrix(1.3333333,0,0,1.3333333,0,136)"
       style="font-variant:normal;font-weight:normal;font-size:6.49999px;font-family:'DejaVu Sans';-inkscape-font-specification:DejaVuSans;writing-mode:lr-tb;fill:#000000;fill-opacity:1;fill-rule:nonzero;stroke:none"
       id="text220"
       x="191.1199"
       y="-92.238327"><tspan
         x="191.1199"
         y="-92.238327"
         id="tspan218">5</tspan></text>
  </g>
</svg>
